<?xml version="1.0" standalone="no"?>
<!DOCTYPE svg PUBLIC "-//W3C//DTD SVG 20010904//EN"
 "http://www.w3.org/TR/2001/REC-SVG-20010904/DTD/svg10.dtd">
<svg version="1.0" xmlns="http://www.w3.org/2000/svg"
 width="354.000000pt" height="142.000000pt" viewBox="0 0 354.000000 142.000000"
 preserveAspectRatio="xMidYMid meet">

<g transform="translate(0.000000,142.000000) scale(0.100000,-0.100000)"
fill="#000000" stroke="none">
<path d="M150 1200 l0 -50 230 0 c127 0 230 -3 230 -7 0 -5 -108 -156 -240
-338 l-239 -330 -1 -62 0 -63 310 0 310 0 0 55 0 55 -245 2 -244 3 239 332
240 331 0 61 0 61 -295 0 -295 0 0 -50z"/>
<path d="M2700 793 l0 -423 60 0 60 0 0 423 0 422 -60 0 -60 0 0 -422z"/>
<path d="M973 912 c-215 -77 -268 -340 -98 -490 62 -54 128 -76 214 -70 159
12 266 128 266 288 -1 86 -27 150 -87 207 -74 71 -200 99 -295 65z m186 -129
c102 -77 101 -220 -2 -297 -41 -30 -123 -32 -171 -4 -105 62 -113 227 -15 301
53 39 135 39 188 0z"/>
<path d="M2255 912 c-167 -58 -250 -244 -175 -391 74 -146 232 -207 354 -138
27 15 50 27 52 27 2 0 4 -21 4 -47 0 -56 -24 -108 -62 -136 -33 -25 -118 -34
-158 -17 -29 12 -74 56 -82 80 -2 7 -21 3 -53 -11 -28 -12 -52 -23 -53 -25 -2
-1 10 -23 27 -48 104 -151 366 -147 455 7 40 69 47 139 44 427 l-3 265 -57 3
c-57 3 -58 2 -58 -23 l0 -26 -31 22 c-31 22 -109 49 -138 49 -9 -1 -39 -8 -66
-18z m149 -112 c23 -11 52 -36 66 -57 21 -30 25 -48 25 -108 0 -63 -3 -76 -28
-108 -35 -46 -74 -67 -127 -67 -89 0 -152 65 -158 164 -5 81 25 140 88 173 53
28 82 29 134 3z"/>
<path d="M3042 894 c-135 -67 -194 -231 -133 -370 79 -182 326 -227 465 -85
l37 38 -47 31 -47 30 -29 -28 c-61 -62 -165 -66 -224 -9 -19 18 -34 38 -34 43
0 6 84 45 186 86 102 41 188 80 191 87 6 15 -31 85 -68 127 -69 79 -196 101
-297 50z m197 -102 c14 -10 26 -23 28 -29 3 -9 -231 -113 -256 -113 -13 0 -4
54 15 91 36 71 149 99 213 51z"/>
</g>
</svg>
