<?xml version="1.0" encoding="iso-8859-1"?>
<!-- Generator: Adobe Illustrator 19.0.0, SVG Export Plug-In . SVG Version: 6.00 Build 0)  -->
<svg version="1.1" id="Layer_1" xmlns="http://www.w3.org/2000/svg" xmlns:xlink="http://www.w3.org/1999/xlink" x="0px" y="0px"
	 viewBox="0 0 488 488" style="enable-background:new 0 0 488 488;" xml:space="preserve">
<g>
	<g>
		<path d="M409.75,0L409.75,0L78.25,0c-5.5,0-10,4.5-10,10s4.5,10,10,10h51.5v265.2c0,4.8,0.7,9.7,1.9,14.4
			c6.1,23.3,25.8,41.2,50.2,45.1v31.9h-19.6c-4.2,0-8,2.7-9.4,6.6l-32.7,91.5c-1.1,3.1-0.6,6.5,1.2,9.1c1.8,2.6,4.9,4.2,8.2,4.2
			h124.5c3.3,0,6.3-1.6,8.2-4.2s2.3-6.1,1.2-9.1l-32.7-91.5c-1.4-4-5.2-6.6-9.4-6.6h-19.6v-31.9c20.7-3.3,38-16.7,46.5-34.9
			c3.6-7.6,5.6-15.9,5.6-24.6l0.1-128.4c10.9,9.8,25.4,15.7,41.3,15.7c15.8,0,30.7-5.6,42.1-15.9v73.5l-14.1-13.8
			c-3.9-3.9-10.3-3.8-14.1,0.1c-3.9,3.9-3.8,10.3,0.1,14.1l31.1,30.5c0.1,0.1,0.2,0.2,0.3,0.2c0.1,0.1,0.3,0.3,0.4,0.4
			c0.1,0.1,0.3,0.2,0.4,0.3c0.1,0.1,0.3,0.2,0.4,0.3c0.1,0.1,0.3,0.2,0.4,0.3c0.1,0.1,0.3,0.2,0.4,0.2c0.2,0.1,0.3,0.2,0.5,0.2
			c0.1,0.1,0.3,0.1,0.4,0.2c0.2,0.1,0.3,0.1,0.5,0.2c0.1,0.1,0.3,0.1,0.5,0.2c0.2,0,0.3,0.1,0.5,0.1s0.3,0.1,0.5,0.1
			s0.4,0.1,0.5,0.1c0.1,0,0.3,0,0.4,0.1c0.3,0,0.7,0,1,0s0.7,0,1,0c0.1,0,0.3,0,0.4-0.1c0.2,0,0.4,0,0.5-0.1c0.2,0,0.3-0.1,0.5-0.1
			s0.3-0.1,0.5-0.1s0.3-0.1,0.5-0.2c0.2-0.1,0.3-0.1,0.5-0.2c0.1-0.1,0.3-0.1,0.4-0.2c0.2-0.1,0.3-0.1,0.4-0.2
			c0.1-0.1,0.3-0.2,0.4-0.2c0.1-0.1,0.3-0.2,0.4-0.3c0.1-0.1,0.3-0.2,0.4-0.3c0.1-0.1,0.3-0.2,0.4-0.3c0.2-0.1,0.3-0.3,0.4-0.4
			c0.1-0.1,0.2-0.1,0.3-0.2l31.1-30.5c3.9-3.9,4-10.2,0.1-14.1c-3.9-3.9-10.2-4-14.1-0.1l-14.1,13.8V111.3c0-4.8-0.7-9.6-1.9-14.3
			c-6.1-23.3-25.8-41.2-50.2-45.1V20h104.4c5.5,0,10-4.5,10-10S415.25,0,409.75,0z M214.25,396.5l25.6,71.5h-96.1l25.5-71.5H214.25z
			 M226.05,308.3c-5.8,7.8-14.4,13.6-24.3,16v-29.2c0-5.5-4.5-10-10-10s-10,4.5-10,10v29.1c-13.5-3.4-24.9-13.5-29.7-26.1
			c-1.6-4.3-2.4-8.9-2.4-13.8c0-22.6,18.5-40.3,42.1-40.3c23.6,0,42.1,17.7,42.1,40.3C233.95,293.3,231.05,301.5,226.05,308.3z
			 M233.95,112.1c0,1.1,0,2.2,0.1,3.2l-0.1,124.7c-11.5-10.2-26.3-15.9-42.2-15.9c-15.8,0-30.7,5.6-42.1,15.9V20h135.6v31.9l0.1,0
			C256.25,56.7,233.95,81.9,233.95,112.1z M305.35,101.5V72.4c13.1,3.3,24.2,12.9,29.2,24.9c1.9,4.6,2.9,9.7,2.9,14.9
			c0,22.5-18.5,40.2-42.1,40.2v0c-21.9,0-39.9-16.7-41.3-37.7v-3.3c0-18.1,13.8-34.4,31.3-39v29.1c0,5.5,4.5,10,10,10
			S305.35,107,305.35,101.5z"/>
	</g>
</g>
<g>
</g>
<g>
</g>
<g>
</g>
<g>
</g>
<g>
</g>
<g>
</g>
<g>
</g>
<g>
</g>
<g>
</g>
<g>
</g>
<g>
</g>
<g>
</g>
<g>
</g>
<g>
</g>
<g>
</g>
</svg>
